<?xml version="1.0" encoding="UTF-8"?>
<svg id="Layer_2" data-name="Layer 2" xmlns="http://www.w3.org/2000/svg" viewBox="0 0 461.76 461.76">
  <defs>
    
  </defs>
  <g id="Graphic_Elements" data-name="Graphic Elements">
    <g>
      <path class="cls-1" d="M155.92,452.27c20.66-7.05,38.12-18.82,52.17-35.42,17.39-20.53,26.55-44.33,27.71-71.11.2-4.89.07-9.79-.38-14.67-.53-6.27-1.59-12.48-3.16-18.58-5.17-19.98-15.05-37.35-29.32-52.33-9.89-10.43-13.88-22.85-12.08-37.05,1.02-8.27,4.46-16.06,9.89-22.42.43-.5.9-.97,1.41-1.39,14.94-12.25,36.07-13.69,52.55-3.58,3.31,2.04,6.12,4.62,8.97,7.2,22.66,20.58,49.4,30.86,80.05,31.27,8.71.02,17.4-.94,25.89-2.86,35.6-8.1,65.48-32,81.03-64.82,17.74-37.69,13.99-81.89-9.85-116.1C416.96,16.22,376.63-2.85,334.86.35c-9.14.66-18.16,2.4-26.88,5.17-17.15,5.44-32.81,14.71-45.79,27.11-8.32,7.87-18.26,12.11-29.76,12.48-12.63.4-23.6-3.77-32.73-12.43-9.48-9.06-20.43-16.48-32.39-21.93C149.86,2.82,131.57-.84,112.36.35c-10.6.65-21.05,2.8-31.03,6.38-23.89,8.58-43.38,23.03-58.46,43.35C8.69,69.17.95,90.58.05,114.34c-.22,7.36.32,14.73,1.63,21.98,2.02,11.69,5.78,23.01,11.18,33.59,5.33,10.43,12.15,20.04,20.26,28.53,9.78,10.33,13.73,22.7,12.01,36.74-1.19,9.68-5.42,18.02-12.2,25.11C13.25,280.88,2.37,305.33.28,333.65c-1.17,17.5,1.67,35.04,8.31,51.3,11.54,27.56,30.74,48.06,57.58,61.49,12.81,6.37,26.72,10.28,40.99,11.54,7.64.7,15.32.66,22.95-.13,8.79-.87,17.45-2.75,25.81-5.58Z"></path>
      <path class="cls-1" d="M245.84,354.51c-.09,58.43,47.27,107.25,107.97,107.25,59.27.14,107.51-47.3,107.95-106.16.51-60.82-49.07-108.38-107.97-108.22-28.63-.02-56.09,11.25-76.34,31.35-20.25,20.09-31.62,47.36-31.61,75.78Z"></path>
    </g>
  </g>
</svg>