<?xml version="1.0" encoding="UTF-8"?>
<svg id="Layer_2" xmlns="http://www.w3.org/2000/svg" version="1.1" viewBox="0 0 628.5 237.1">
  
  <defs>
    
  </defs>
  <g class="st0">
    <path class="st1" d="M18.6,32.4h60.5c16.2,0,26.8,6,31.1,17.1-3-.6-6.3-.9-9.7-.9h-62v52.7h62c4.1,0,8.2-.4,11.9-1.3v18.1c-3-.6-6.5-1.1-10.4-1.1h-63.5v66.5h-19.9V32.4ZM132.6,75.4c0,13.6-8.4,21.6-20.3,24.6v-37.8c0-4.8-.6-9.1-2.2-12.7,12.7,2.8,22.5,11,22.5,25.9ZM112.3,118.1c11.4,2.6,18.1,10.6,18.1,25.7v18.6c0,9.3,1.5,14.9,5.2,20.3v.9h-23.3v-65.4Z"></path>
  </g>
  <g class="st0">
    <path class="st1" d="M149.1,127.8c0-20.5,9.3-32.8,24.8-38.9-3.7,9.5-5,22.7-5,38.9s1.5,29.2,5.6,39.1c-16-5.6-25.5-17.9-25.5-39.1ZM204,69.8c16.2,0,25.3,6.5,30,19.4-8.2-3.2-18.4-4.8-30-4.8s-21.8,1.5-30,4.5c5-12.7,14-19.2,30-19.2ZM204,171.2c11.2,0,21.4-1.3,29.6-4.3-5.2,12.3-14,19.2-29.6,19.2s-24.4-6.9-29.4-19.2c8.2,3,18.1,4.3,29.4,4.3ZM239,127.8c0-16.2-1.3-29.2-5-38.7,15.8,5.8,24.8,18.1,24.8,38.7s-9.5,33.3-25.3,39.1c4.1-9.9,5.4-23.3,5.4-39.1Z"></path>
  </g>
  <g class="st0">
    <path class="st1" d="M277.5,141.7v-69.3h18.6v84.9c0,4.5.4,8.4,1.1,11.7-11.2-3.7-19.7-12.1-19.7-27.2ZM317.7,186.2c18.1,0,28.3-14,33-29.4h.2v26.8h18.6v-111.2h-18.6v82.1c-4.1,7.8-16.4,17.3-35.2,17.3s-13-.9-18.6-2.8c2.6,11.9,9.7,17.3,20.5,17.3Z"></path>
  </g>
  <g class="st0">
    <path class="st1" d="M414,88.3c-3.5,9.7-4.5,22.7-4.5,37.4s1.1,27.6,4.3,37.4c-14.3-5.6-24.2-18.1-24.2-37.4s9.9-31.7,24.4-37.4ZM413.5,186.2c.2,8.2.6,16,2.8,22.7-15.3-3.5-21.8-10.8-22.5-22.7h19.7ZM434.3,166.7c22.2,0,36.1-9.9,39.5-16.8v-48.2c-3.5-6.9-17.3-17.1-39.5-17.1s-14.3,1.3-20.3,3.7c4.1-11.7,11.7-18.6,25.5-18.6,19.7,0,29.6,14.3,34.1,29.6h.2v-27h18.6v101.7c0,17.7-4.3,28.9-20.9,33.9,1.9-6,2.4-13,2.4-19.4v-36.3h-.2c-4.5,15.3-14.5,29.6-34.3,29.6s-21.4-7.1-25.5-18.8c6.3,2.4,13.2,3.7,20.5,3.7ZM444,226.1c-17.3,0-24.6-7.1-27.6-17.3,6.9,1.5,15.8,2.4,26.8,2.4s21.4-1.1,28.3-3.2c-3,10.1-10.6,18.1-27.4,18.1Z"></path>
  </g>
  <g class="st0">
    <path class="st1" d="M521.1,32.4h18.6v66.7h.2c4.8-15.3,14.9-29.4,33.3-29.4s18.4,5.4,20.9,17.3c-5.8-1.9-12.3-2.8-19-2.8-19,0-31.3,9.5-35.4,17.3v82.1h-18.6V32.4ZM613.8,114.2v69.3h-18.6v-84.9c0-4.5-.4-8.4-1.1-11.7,11.4,3.9,19.7,12.1,19.7,27.2Z"></path>
  </g>
</svg>